<?xml version="1.0" standalone="no"?>
<!DOCTYPE svg PUBLIC "-//W3C//DTD SVG 20010904//EN"
 "http://www.w3.org/TR/2001/REC-SVG-20010904/DTD/svg10.dtd">
<svg version="1.0" xmlns="http://www.w3.org/2000/svg"
 width="260.000000pt" height="260.000000pt" viewBox="0 0 260.000000 260.000000"
 preserveAspectRatio="xMidYMid meet">
<metadata>
Created by potrace 1.11, written by Peter Selinger 2001-2013
</metadata>
<g transform="translate(0.000000,260.000000) scale(0.100000,-0.100000)"
fill="#000000" stroke="none">
<path d="M0 1300 l0 -1300 1300 0 1300 0 0 1300 0 1300 -1300 0 -1300 0 0
-1300z m895 780 c77 -24 184 -78 229 -115 l29 -23 -60 -69 c-34 -37 -82 -88
-107 -112 l-46 -45 -27 26 c-78 74 -226 109 -318 74 -118 -46 -130 -176 -22
-233 18 -9 99 -40 181 -69 169 -60 241 -100 299 -164 66 -74 88 -135 88 -239
0 -101 -12 -157 -48 -220 -95 -163 -257 -243 -493 -242 -173 1 -361 64 -468
158 l-43 38 110 109 109 109 44 -36 c120 -99 268 -130 377 -79 72 33 96 141
45 202 -34 39 -78 62 -223 112 -159 54 -218 84 -274 137 -91 84 -124 175 -114
313 13 197 161 339 402 387 80 16 249 6 330 -19z m1236 -32 c112 -39 187 -97
231 -180 20 -37 23 -58 23 -148 0 -89 -3 -111 -22 -145 -28 -53 -87 -108 -146
-138 l-49 -24 53 -17 c156 -51 238 -177 226 -347 -6 -93 -29 -147 -90 -214
-53 -60 -124 -101 -221 -129 -64 -18 -106 -20 -423 -24 l-353 -3 0 696 0 696
363 -4 c297 -3 370 -6 408 -19z"/>
<path d="M1690 1666 l0 -146 111 0 c60 0 129 5 153 11 135 34 160 197 38 252
-37 16 -74 21 -174 25 l-128 5 0 -147z"/>
<path d="M1690 1109 l0 -162 145 5 c164 7 221 25 256 82 23 38 25 115 3 157
-28 56 -87 73 -256 77 l-148 4 0 -163z"/>
</g>
</svg>
